# AST/ASF file generated using VICON BodyLanguage
# -----------------------------------------------
:version 1.10
:name VICON
:units
  mass 1.0
  length 0.45
  angle deg
:documentation
   .ast/.asf automatically generated from VICON data using
   VICON BodyBuilder and BodyLanguage model FoxedUp or BRILLIANT.MOD
:root
   order TX TY TZ RX RY RZ
   axis XYZ
   position 0 0 0  
   orientation 0 0 0 
:bonedata
  begin
     id 1 
     name lhipjoint
     direction 0.606768 -0.715223 0.346827 
     length 2.41543 
     axis 0 0 0  XYZ
  end
  begin
     id 2 
     name lfemur
     direction 0.34202 -0.939693 0  
     length 7.2778  
     axis 0 0 20  XYZ
    dof rx ry rz
    limits (-160.0 20.0)
           (-70.0 70.0)
           (-60.0 70.0)
  end
  begin
     id 3 
     name ltibia
     direction 0.34202 -0.939693 0   
     length 7.61811   
     axis 0 0 20   XYZ
    dof rx
    limits (-10.0 170.0)
  end
  begin
     id 4 
     name lfoot
     direction 0.0823924 -0.226371 0.97055   
     length 2.33618   
     axis -90 7.62852e-016 20   XYZ
    dof rx rz
    limits (-45.0 90.0)
           (-70.0 20.0)
  end
  begin
     id 5 
     name ltoes
     direction 1.53554e-011 -4.21934e-011 1   
     length 1.17015   
     axis -90 7.62852e-016 20   XYZ
    dof rx
    limits (-90.0 20.0)
  end
  begin
     id 6 
     name rhipjoint
     direction -0.6077 -0.714582 0.346516   
     length 2.4176  
     axis 0 0 0  XYZ 
  end
  begin
     id 7 
     name rfemur
     direction -0.34202 -0.939693 0   
     length 7.28127   
     axis 0 0 -20   XYZ
    dof rx ry rz
    limits (-160.0 20.0)
           (-70.0 70.0)
           (-70.0 60.0)
  end
  begin
     id 8 
     name rtibia
     direction -0.34202 -0.939693 0   
     length 7.77648   
     axis 0 0 -20   XYZ
    dof rx
    limits (-10.0 170.0)
 end
 begin
     id 9 
     name rfoot
     direction -0.0809463 -0.222398 0.97159   
     length 2.37533  
     axis -90 -7.62852e-016 -20   XYZ
    dof rx rz
    limits (-45.0 90.0)
           (-20.0 70.0)
  end
  begin
     id 10 
     name rtoes
     direction -1.53568e-011 -4.21714e-011 1   
     length 1.18972   
     axis -90 -7.62852e-016 -20   XYZ
    dof rx
    limits (-90.0 20.0)
  end
  begin
     id 11 
     name lowerback
     direction 0.010968 0.991932 -0.126297   
     length 2.21698   
     axis 0 0 0   XYZ
    dof rx ry rz
    limits (-20.0 45.0)
           (-30.0 30.0)
           (-30.0 30.0)
  end
  begin
     id 12 
     name upperback
     direction 0.0167007 0.997503 -0.0686276   
     length 2.22371   
     axis 0 0 0   XYZ
    dof rx ry rz
    limits (-20.0 45.0)
           (-30.0 30.0)
           (-30.0 30.0)
  end
  begin
     id 13 
     name thorax
     direction 0.0111721 0.999885 -0.0102878   
     length 2.25242   
     axis 0 0 0   XYZ
    dof rx ry rz
    limits (-20.0 45.0)
           (-30.0 30.0)
           (-30.0 30.0)
  end
  begin
     id 14 
     name lowerneck
     direction -0.0120265 0.990428 0.137508   
     length 1.57674   
     axis 0 0 0   XYZ
    dof rx ry rz
    limits (-20.0 45.0)
           (-30.0 30.0)
           (-30.0 30.0)
  end
  begin
     id 15 
     name upperneck
     direction 0.0175669 0.998907 0.0433089   
     length 1.5618   
     axis 0 0 0   XYZ
    dof rx ry rz
    limits (-20.0 45.0)
           (-30.0 30.0)
           (-30.0 30.0)
  end
  begin
     id 16
     name head
     direction 0.00754609 0.99997 0.00185367  
     length 1.60579  
     axis 0 0 0   XYZ
    dof rx ry rz
    limits (-20.0 45.0)
           (-30.0 30.0)
           (-30.0 30.0)
  end
  begin
     id 17 
     name lclavicle
     direction 0.885866 0.429166 -0.176231  
     length 3.44967  
     axis 0 0 0   XYZ
    dof ry rz
    limits (-20.0 10.0)
           (0.0 20.0)
  end
  begin
     id 18 
     name lhumerus
     direction 1 -4.48973e-011 -1.90255e-027   
     length 5.20607   
     axis 180 -30 -90   XYZ
    dof rx ry rz
    limits (-60.0 90.0)
           (-90.0 90.0)
           (-90.0 90.0)
  end
  begin
     id 19
     name lradius
     direction 1 -4.48956e-011 9.87925e-027   
     length 3.39961   
     axis 180 -30 -90   XYZ
    dof rx
    limits (-10.0 170.0)
  end
  begin
     id 20
     name lwrist
     direction 1 -4.48985e-011 1.73247e-026   
     length 1.6998   
     axis -9.60847e-015 90 90   XYZ
    dof ry
    limits (-180.0 0.0)
 end
  begin
     id 21 
     name lhand
     direction 1 -4.48798e-011 3.46119e-026   
     length 0.519693   
     axis -2.21073e-014 90 90   XYZ
    dof rx rz
    limits (-90.0 90.0)
           (-45.0 45.0)
  end
  begin
     id 22 
     name lfingers
     direction 1 -4.48938e-011 6.92797e-026   
     length 0.41899   
     axis -4.42155e-014 90 90   XYZ
    dof rx
    limits (0.0 90.0)
  end
  begin
     id 23
     name lthumb
     direction 0.707107 -6.34952e-011 0.707107   
     length 0.601588   
     axis -90 45 6.0103e-014   XYZ
    dof rx rz
    limits (-45.0 45.0)
           (-45.0 45.0)
  end
  begin
     id 24 
     name rclavicle
     direction -0.866736 0.456792 -0.200276   
     length 3.45032  
     axis 0 0 0   XYZ 
    dof ry rz
    limits (-10.0 20.0)
           (-20.0 0.0)
  end
  begin
     id 25 
     name rhumerus
     direction -1 -4.4897e-011 8.65094e-028  
     length 5.32214   
     axis 180 30 90   XYZ
    dof rx ry rz
    limits (-90.0 60.0)
           (-90.0 90.0)
           (-90.0 90.0)
  end
  begin
     id 26 
     name rradius
     direction -1 -4.48987e-011 1.08427e-026   
     length 3.51208   
     axis 180 30 90   XYZ
    dof rx
    limits (-10.0 170.0)
  end
  begin
     id 27 
     name rwrist
     direction -1 -4.48961e-011 1.73222e-026   
     length 1.75604   
     axis -9.60847e-015 -90 -90   XYZ
    dof ry
    limits (-180.0 0.0)
  end
  begin
     id 28
     name rhand
     direction -1 -4.48895e-011 3.46314e-026   
     length 0.586681   
     axis -2.21073e-014 -90 -90   XYZ
    dof rx rz
    limits (-90.0 90.0)
           (-45.0 45.0)
  end
  begin
     id 29
     name rfingers
     direction -1 -4.48968e-011 6.92916e-026   
     length 0.472997   
     axis -4.42155e-014 -90 -90   XYZ
    dof rx
    limits (0.0 90.0)
  end
  begin
     id 30
     name rthumb
     direction -0.707107 -6.34848e-011 0.707107   
     length 0.679133   
     axis -90 -45 -6.0103e-014   XYZ
    dof rx rz
    limits (-45.0 45.0)
           (-45.0 45.0)
  end
:hierarchy
  begin
    root lhipjoint rhipjoint lowerback
    lhipjoint lfemur
    lfemur ltibia
    ltibia lfoot
    lfoot ltoes
    rhipjoint rfemur
    rfemur rtibia
    rtibia rfoot
    rfoot rtoes
    lowerback upperback
    upperback thorax
    thorax lowerneck lclavicle rclavicle
    lowerneck upperneck
    upperneck head
    lclavicle lhumerus
    lhumerus lradius
    lradius lwrist
    lwrist lhand lthumb
    lhand lfingers
    rclavicle rhumerus
    rhumerus rradius
    rradius rwrist
    rwrist rhand rthumb
    rhand rfingers
  end

#!OML:ASF H:\Dans Jumps\Project 1\Capture day 1\Session 1\subject.ASF
:FULLY-SPECIFIED
:DEGREES
21
root 0.507552 17.4572 -13.8884 8.30455 -1.81474 -3.56417
lowerback -0.875365 0.0443294 2.47334
upperback 3.62132 -0.0983621 2.16145
thorax 4.22384 -0.0063087 0.839673
lowerneck -14.2614 0.839585 -2.10901
upperneck 29.8509 1.87941 -0.274497
head 12.1786 0.560316 0.532386
rclavicle -9.74045e-015 -2.14687e-014
rhumerus -21.5153 -16.6455 -79.9302
rradius 25.8826
rwrist 31.0473
rhand -18.8891 -26.0179
rfingers 7.12502
rthumb 7.4122 -55.868
lclavicle -9.74045e-015 -2.14687e-014
lhumerus -23.6318 10.9543 79.9071
lradius 16.2679
lwrist -3.01504
lhand -24.4644 -4.06426
lfingers 7.12502
lthumb 2.02887 25.9058
rfemur -16.3367 -2.66814 21.8001
rtibia 22.6384
rfoot -14.755 -1.2348
rtoes 3.57065
lfemur -17.1917 8.43356 -17.2877
ltibia 24.323
lfoot -12.1083 7.76085
ltoes -9.22973
22
root 0.499745 17.4609 -13.8815 8.34734 -1.99644 -3.54688
lowerback -0.946741 0.0948196 2.45065
upperback 3.60919 -0.0321789 2.14307
thorax 4.25188 0.0262991 0.836557
lowerneck -14.2471 0.848571 -2.09235
upperneck 29.9021 1.87931 -0.247152
head 12.1958 0.564918 0.539974
rclavicle -6.75868e-015 -1.17283e-014
rhumerus -21.5384 -16.6474 -79.8929
rradius 25.8255
rwrist 31.1642
rhand -18.8513 -25.9625
rfingers 7.12502
rthumb 7.44866 -55.8114
lclavicle -6.75868e-015 -1.17283e-014
lhumerus -23.6656 11.0387 79.9512
lradius 16.4232
lwrist -2.69667
lhand -24.7003 -4.39643
lfingers 7.12502
lthumb 1.80106 25.5757
rfemur -16.3365 -2.71554 21.8078
rtibia 22.5497
rfoot -14.7112 -1.00499
rtoes 3.61824
lfemur -17.1077 8.44287 -17.2851
ltibia 24.1996
lfoot -12.0466 7.90427
ltoes -9.18556
23
root 0.49128 17.4644 -13.8753 8.38595 -2.17978 -3.47992
lowerback -1.01003 0.140161 2.37062
upperback 3.59989 0.0299633 2.10683
thorax 4.27801 0.0552724 0.846991
lowerneck -14.2487 0.856075 -2.08061
upperneck 29.9584 1.87414 -0.204564
head 12.2182 0.568504 0.553589
rclavicle -1.78906e-015 -1.07344e-014
rhumerus -21.5506 -16.6502 -79.866
rradius 25.7701
rwrist 31.289
rhand -18.8132 -25.9302
rfingers 7.12502
rthumb 7.48549 -55.7777
lclavicle -1.78906e-015 -1.07344e-014
lhumerus -23.7076 10.98 80.0394
lradius 16.6234
lwrist -2.21543
lhand -24.8679 -4.61144
lfingers 7.12502
lthumb 1.63915 25.362
rfemur -16.3584 -2.7544 21.7673
rtibia 22.5057
rfoot -14.6852 -0.817679
rtoes 3.62071
lfemur -17.0087 8.45734 -17.3363
ltibia 24.0442
lfoot -11.9747 8.03172
ltoes -9.13674
24
root 0.482268 17.4677 -13.8698 8.41529 -2.35309 -3.37848
lowerback -1.05692 0.17781 2.2525
upperback 3.59109 0.0843505 2.05763
thorax 4.29509 0.0792718 0.864992
lowerneck -14.2584 0.861502 -2.07164
upperneck 30.021 1.86452 -0.154054
head 12.2447 0.570676 0.570151
rclavicle 1.2921e-015 -8.54774e-015
rhumerus -21.5595 -16.653 -79.8469
rradius 25.7192
rwrist 31.4112
rhand -18.7752 -25.9307
rfingers 7.12502
rthumb 7.52217 -55.7769
lclavicle 1.2921e-015 -8.54774e-015
lhumerus -23.7562 10.7774 80.1701
lradius 16.854
lwrist -1.59869
lhand -24.9753 -4.73754
lfingers 7.12502
lthumb 1.53541 25.2367
rfemur -16.393 -2.78292 21.6948
rtibia 22.5009
rfoot -14.6757 -0.680188
rtoes 3.59979
lfemur -16.8934 8.47183 -17.4232
ltibia 23.8618
lfoot -11.8956 8.13908
ltoes -9.086
